<?xml version="1.0" encoding="UTF-8" standalone="no"?>
<!-- Created with Inkscape (http://www.inkscape.org/) -->

<svg
   id="svg5"
   version="1.1"
   viewBox="0 0 15.291667 15.29167"
   height="15.29167mm"
   width="15.291667mm"
   sodipodi:docname="foss-browser.svg"
   inkscape:version="1.2.2 (b0a8486541, 2022-12-01)"
   inkscape:export-filename="/home/juergen/Android/StudioProjects/browser/graphics/Zeichnung.png"
   inkscape:export-xdpi="1199.9963"
   inkscape:export-ydpi="1199.9963"
   xmlns:inkscape="http://www.inkscape.org/namespaces/inkscape"
   xmlns:sodipodi="http://sodipodi.sourceforge.net/DTD/sodipodi-0.dtd"
   xmlns="http://www.w3.org/2000/svg"
   xmlns:svg="http://www.w3.org/2000/svg">
  <sodipodi:namedview
     id="namedview7"
     pagecolor="#ffffff"
     bordercolor="#666666"
     borderopacity="1.0"
     inkscape:pageshadow="2"
     inkscape:pageopacity="0.0"
     inkscape:pagecheckerboard="0"
     inkscape:document-units="mm"
     showgrid="false"
     inkscape:zoom="10.562636"
     inkscape:cx="-5.3017069"
     inkscape:cy="23.431651"
     inkscape:window-width="2550"
     inkscape:window-height="1031"
     inkscape:window-x="0"
     inkscape:window-y="0"
     inkscape:window-maximized="1"
     inkscape:current-layer="layer1"
     fit-margin-top="5"
     fit-margin-left="5"
     fit-margin-bottom="5"
     fit-margin-right="5"
     inkscape:showpageshadow="2"
     inkscape:deskcolor="#d1d1d1" />
  <defs
     id="defs2" />
  <g
     inkscape:label="Ebene 1"
     inkscape:groupmode="layer"
     id="layer1"
     transform="translate(-89.275918,-139.72058)">
    <path
       d="m 98.216462,147.96032 c 0.02376,-0.19599 0.04157,-0.39198 0.04157,-0.59392 0,-0.20191 -0.01781,-0.3979 -0.04157,-0.59389 h 1.003694 c 0.04752,0.19005 0.07721,0.38901 0.07721,0.59389 0,0.2049 -0.02967,0.40387 -0.07721,0.59392 m -1.529297,1.65104 c 0.178171,-0.32962 0.314768,-0.68596 0.409793,-1.05713 h 0.876007 c -0.285077,0.48996 -0.73941,0.87005 -1.2858,1.05713 m -0.07424,-1.65104 h -1.389732 c -0.02969,-0.19599 -0.04751,-0.39198 -0.04751,-0.59392 0,-0.20191 0.01782,-0.40088 0.04751,-0.59389 h 1.389732 c 0.02672,0.19301 0.04751,0.39198 0.04751,0.59389 0,0.20194 -0.02079,0.39793 -0.04751,0.59392 m -0.694865,1.76983 c -0.246469,-0.35634 -0.445427,-0.75129 -0.567177,-1.17592 h 1.134353 c -0.121749,0.42463 -0.320707,0.81958 -0.567176,1.17592 m -1.187805,-3.55155 h -0.867098 c 0.282104,-0.49293 0.739409,-0.87303 1.282829,-1.05714 -0.178171,0.32962 -0.311798,0.68596 -0.415731,1.05714 m -0.867098,2.37563 h 0.867098 c 0.103939,0.37117 0.23756,0.72751 0.415731,1.05713 -0.54342,-0.18708 -1.000725,-0.56717 -1.282829,-1.05713 m -0.2435,-0.59391 c -0.04751,-0.19005 -0.07721,-0.38902 -0.07721,-0.59392 0,-0.20488 0.0297,-0.40384 0.07721,-0.59389 h 1.003694 c -0.02376,0.19599 -0.04157,0.39198 -0.04157,0.59389 0,0.20194 0.01781,0.39793 0.04157,0.59392 m 1.294708,-2.96061 c 0.246469,0.35634 0.445427,0.75425 0.567176,1.17889 h -1.134353 c 0.12175,-0.42464 0.320708,-0.82255 0.567177,-1.17889 m 2.054903,1.17889 H 98.10065 c -0.09503,-0.37118 -0.231622,-0.72752 -0.409793,-1.05714 0.546389,0.18708 1.000722,0.56421 1.285799,1.05714 m -2.054903,-1.7817 c -1.642141,0 -2.969513,1.33628 -2.969513,2.9695 a 2.9695121,2.9695121 0 0 0 2.969513,2.96953 2.9695121,2.9695121 0 0 0 2.969508,-2.96953 2.9695121,2.9695121 0 0 0 -2.969508,-2.9695 z"
       id="path864"
       style="fill:#afb42b;fill-opacity:1;stroke-width:0.296951"
       inkscape:export-filename="/home/juergen/Android/Apps/path864.png"
       inkscape:export-xdpi="1199.9963"
       inkscape:export-ydpi="1199.9963" />
  </g>
</svg>
